<?xml version="1.0" encoding="UTF-8"?><svg id="Layer_1" xmlns="http://www.w3.org/2000/svg" viewBox="0 0 1190.55 737.27"><defs><style>.cls-1{fill:#ed702b;}.cls-2{fill:#fff;}.cls-3{fill:#153960;}</style></defs><path d="m646.16,260.74c3.75-.03,7.36-1.86,9.96-5.17,19.43-26.34,19.41-29.07,19.39-30.71,0-2.66-2.21-4.83-4.87-4.81l-19.45.12-.28-41.87c-.03-2.94-2.43-5.3-5.36-5.28-2.94.02-5.29,2.42-5.28,5.35l.27,41.88-19.45.12c-2.66.02-4.81,2.22-4.81,4.89.02,1.63.03,4.38,19.91,30.56,2.59,3.14,6.21,4.93,9.96,4.91h0Zm16.28-30.95c-3.52,5.34-9.04,13.16-14.02,19.9-.69.88-1.52,1.36-2.34,1.37-.81,0-1.66-.46-2.26-1.2-5.13-6.77-10.79-14.54-14.39-19.84l33.02-.23Z"/><path d="m646.16,459.17c3.75.03,7.36,1.86,9.96,5.17,19.43,26.34,19.41,29.07,19.39,30.71,0,2.66-2.21,4.83-4.87,4.81l-19.45-.12-.28,41.87c-.03,2.94-2.43,5.3-5.36,5.28-2.94-.02-5.29-2.42-5.28-5.35l.27-41.88-19.45-.12c-2.66-.02-4.81-2.22-4.81-4.89.02-1.63.03-4.38,19.91-30.56,2.59-3.14,6.21-4.93,9.96-4.91h0Zm16.28,30.95c-3.52-5.34-9.04-13.16-14.02-19.9-.69-.88-1.52-1.36-2.34-1.37-.81,0-1.66.46-2.26,1.2-5.13,6.77-10.79,14.54-14.39,19.84l33.02.23Z"/><g><g><path d="m430.94,268.37c-9.25-2.49-13.87-3.73-23.11-6.19l-7.43-1.97v-59.82l13.18,4.42c9.28,3.11,13.92,4.69,23.2,7.85l6.77,2.31v56.8l-12.6-3.4Z"/><path d="m432.24,263.54l6.3,1.7v-46.71l-3.39-1.15c-9.27-3.16-13.9-4.73-23.17-7.84l-6.59-2.21v49.03l3.72.99c9.25,2.46,13.88,3.7,23.13,6.19Z"/><path d="m253.28,539.93c-13.09,0-24.7-9.44-29.57-24.06-4.82-14.48-5.63-29.55-6-42.53v-96.7s9.9-.09,9.9-.09c5.03-.05,8.69-.08,12.47-.13-1.29-4.51-2.54-8.95-3.77-13.29-.77-2.72-1.54-5.44-2.31-8.17-3.45-12.16-7.01-24.69-10.14-37.18-3.96-16.63-6.03-33.21-6.16-49.32v-42.1l.05-3.16c.22-15.42.47-32.89,7.1-48.3,4.88-11.34,15.38-18.38,27.41-18.38,2.5,0,5.03.31,7.51.93,8.52,2.12,16.07,7.64,21.56,15.48v-8.28l12.52,3.27c9.16,2.39,13.74,3.63,23.33,6.33l7.29,2.05v57.4c.15,0,.31,0,.46,0,1.91,0,3.92.23,5.98.67,3.84.83,7.3,2.68,10.37,5.54v-1.5l12.17,2.72c9.67,2.16,14.28,3.21,23.23,5.28l5.27,1.22c1.05-.15,2.11-.23,3.19-.23,1.92,0,3.92.24,5.93.73,3.42.82,6.53,2.39,9.33,4.69v-.86l12.33,2.97c8.69,2.09,13.31,3.21,21.49,5.2l6.2,1.51c7.96,1.94,12.5,3.06,19.51,4.78l9.24,2.27c.64-.05,1.29-.08,1.95-.08,2.18,0,4.47.29,6.81.88,3.37.84,6.45,2.32,9.24,4.44v-44.32l13.23,4.52c9.24,3.16,13.86,4.73,23.1,7.83l6.81,2.29v39.32l4.31,1.03c9.37,2.23,14.12,3.35,23.76,5.58l10.02,2.32-2.6,9.95c-5.92,22.67-11.17,43.47-16.03,63.55,6.93,27.38,14.21,54.5,21.67,82.18l2.65,9.82-9.87,2.48c-8.64,2.17-17.73,4.51-27.03,6.96l-7.89,2.08-6.4,1.71c-9.24,2.48-13.86,3.73-23.1,6.26l-4.82,1.32c-8.62,2.36-13.22,3.63-21.28,5.86l-11.65,3.22c-8.1,2.24-12.72,3.51-21.36,5.88l-12.64,3.46h0c-4.78,1.29-8.9,2.4-15.06,4.05l-12.59,3.37v-134.72l-15.98-.27v139.15l-7.53,1.92c-8.41,2.14-13.01,3.29-21.27,5.29v.02l-4.99,1.19-9.34,2.25v-.04c-5.63,1.32-9.95,2.3-16.65,3.79l-12.16,2.69v-.05c-7.03,1.5-11.5,2.4-19.23,3.91l-11.91,2.33v-5.89c-6.06,6.99-14.23,11.77-23.31,13.31-1.57.27-3.17.4-4.73.4Zm17.75-240.5c1.42,4.79,2.86,9.58,4.27,14.28l.17.56c1.64,5.47,3.27,10.93,4.88,16.38,0,0,.92,3.09.98,3.3v-33.33c-4.09-.48-7.25-.84-10.29-1.18Z"/><path d="m544.61,366.02c4.94-20.45,10.29-41.67,16.34-64.84l1.3-4.98-5.01-1.16c-9.64-2.23-14.39-3.35-23.79-5.58l-4.86-1.16-1.16,4.86c-.71,2.99-1.42,5.98-2.13,8.97v-54.28l-3.41-1.15c-9.25-3.11-13.88-4.68-23.13-7.84l-6.62-2.26v51.28c-.06-.11-.11-.23-.17-.35-3.88-7.2-9.02-11.64-15.27-13.2-1.94-.48-3.82-.73-5.6-.73s-3.38.23-4.93.68v-1.19l-5.61-1.38c-8.1-1.99-12.71-3.12-21.35-5.23l-.68-.17h0s-2.05-.5-2.05-.5l-3.46-.84h0c-8.17-1.99-12.79-3.11-21.48-5.2l-6.17-1.48v9.91s0-.02-.01-.03c-3.84-8.55-9.04-13.66-15.48-15.2-1.64-.39-3.24-.59-4.77-.59-2,0-3.92.33-5.71,1v-1.22l-3.87-.9c-9-2.08-13.61-3.14-23.19-5.27l-6.09-1.36v12.6c-.26-.69-.52-1.37-.8-2.02-3.9-9.2-9.16-14.57-15.62-15.97-1.71-.37-3.36-.56-4.92-.56-1.94,0-3.77.29-5.46.86v-59.47l-3.65-1.03c-9.55-2.69-14.11-3.93-23.24-6.31l-6.26-1.63v28.76c-.94-4.66-2.13-9.09-3.6-13.29-4.38-12.53-13.41-21.61-24.16-24.29-2.08-.52-4.2-.78-6.3-.78-10,0-18.74,5.89-22.82,15.36-6.23,14.5-6.48,31.44-6.69,46.4l-.05,3.08v42.06c.13,15.73,2.14,31.91,6.01,48.14,3.12,12.43,6.67,24.94,10.1,37.03.77,2.73,1.55,5.45,2.32,8.18,1.78,6.34,3.64,12.89,5.56,19.56-6.75.09-11.25.14-19.04.21l-4.96.04v91.61c.37,12.63,1.14,27.26,5.75,41.1,4.18,12.54,13.92,20.64,24.83,20.64,1.29,0,2.6-.11,3.9-.33,12.47-2.11,23.02-11.3,27.52-23.98.6-1.69,1.13-3.38,1.61-5.09v20.51l5.96-1.16c9.12-1.78,13.68-2.72,23.24-4.77l1.94-.42h0s6.08-1.33,6.08-1.33c8.91-1.97,13.47-3.02,22.73-5.22h0s3.19-.76,3.19-.76l1.15-.27h0s1.83-.45,1.83-.45c9.56-2.31,14.18-3.46,23.21-5.75l3.77-.96v-140.34l25.97.43v133.12l6.29-1.69c8.64-2.32,13.26-3.57,21.35-5.78h0s4.87-1.33,4.87-1.33l.63-.17h0s.82-.22.82-.22c8.64-2.37,13.25-3.64,21.35-5.88l11.65-3.22c8.07-2.23,12.67-3.5,21.29-5.86l2.57-.71,2.25-.62c9.25-2.53,13.88-3.79,23.13-6.27l3.71-.99v-24.18c1.44,5.75,2.93,11.67,4.48,17.76l1.24,4.89,4.88-1.29c9.29-2.45,18.41-4.8,27.09-6.98l4.94-1.24-1.33-4.91c-7.59-28.15-14.99-55.72-22-83.46Zm-258.57,4.04l-.04-.18c-2.77-11.87-6.27-23.69-9.65-35.12l-.8-2.69c-1.66-5.63-3.35-11.27-5.05-16.92-2.12-7.07-4.29-14.32-6.4-21.51,6.67.73,11.14,1.24,19.14,2.17l3.07.36v75.38c-.09-.5-.18-.99-.27-1.49Z"/><path d="m574.88,457.41c-5.18,0-13.94-3.59-13.94-17.05v-164.26c0-12.41,7.34-16.82,13.62-16.82,1.43,0,2.89.23,4.34.68,7.47,2.32,11.05,3.41,18.21,5.55,3.5,1.04,6.4,3.13,8.47,6.01,1.9-.9,3.89-1.29,5.64-1.29,1.34,0,2.72.2,4.08.59,30.02,8.4,57.67,15.13,84.51,20.55,8.01,1.56,13.01,8.21,13.01,17.34v21.56c0,8.42-5.87,14.53-13.95,14.53-.78,0-1.58-.05-2.38-.16-6.88-.92-11.23-1.52-16.98-2.36v78.75c0,11.25-7.18,16.46-13.32,17.5-7.26,1.23-10.89,1.88-18.47,3.32-.93.18-1.87.27-2.79.27-6.77,0-14.05-5.09-14.05-16.25v-91.29c-7.16-1.22-11.72-2.02-20.09-3.53-.53-.09-1.04-.22-1.55-.36v103.42c0,9.64-4.88,16.76-12.74,18.58-7.07,1.64-10.65,2.49-18.21,4.33-1.14.28-2.29.42-3.42.42Z"/><path d="m698.82,296.26c-26.96-5.45-54.74-12.2-84.89-20.64-.92-.26-1.84-.4-2.72-.4-1.06,0-5.24.3-7.37,4.76-1.29-6.58-5.48-8.89-8.16-9.69-7.17-2.14-10.76-3.23-18.27-5.56-.97-.3-1.93-.45-2.86-.45-2.02,0-8.62.85-8.62,11.82v164.26c0,11.47,7.45,12.05,8.94,12.05.73,0,1.48-.09,2.24-.28,7.54-1.83,11.12-2.69,18.27-4.34,5.55-1.29,8.87-6.41,8.87-13.71v-113.38c1.76,3.22,4.66,4.9,7.44,5.4,9.6,1.73,14.19,2.53,23.37,4.09.39.07.53.15.53.15.08.1.3.63.3,1.79v93.71c0,8.31,4.88,11.26,9.06,11.26.61,0,1.24-.06,1.87-.18,7.59-1.43,11.23-2.09,18.56-3.33,4.43-.75,9.16-4.45,9.16-12.57v-84.54c9.09,1.35,13.67,2,22.65,3.2.58.08,1.16.12,1.71.12,5.35,0,8.95-3.83,8.95-9.54v-21.56c0-6.69-3.38-11.35-9.01-12.44Z"/></g><path class="cls-1" d="m286.99,459.22c-.25,16.32-.47,33.2-5.99,48.74-3.76,10.59-12.5,18.83-23.65,20.72-11.34,1.92-19.84-7.02-23.15-16.96-4.21-12.65-5.11-26.18-5.5-39.66v-86.51c9.26-.08,13.89-.14,23.15-.27v85.43c0,3.7.49,6.56,1.46,8.58.98,2.03,2.15,2.95,3.53,2.77,1.61-.2,2.82-1.33,3.62-3.39.8-2.06,1.21-5.07,1.21-9.06v-42.64c0-10.18-.73-18.34-2.17-24.39-4.38-14.33-8.49-28.73-12.56-43.16-4.23-14.99-8.6-29.96-12.39-45.07-3.65-15.34-5.73-31.2-5.86-46.97v-42.02c.25-15.62.09-32.99,6.33-47.51,4.01-9.32,13.46-14.16,23.31-11.7,10.19,2.54,17.28,11.45,20.65,21.09,4.64,13.26,6.01,27.86,5.83,41.86v60.74c-9.26-1.08-13.89-1.6-23.15-2.61v-66.88c0-3.3-.38-5.91-1.13-7.84-.75-1.94-1.71-3.02-2.87-3.24-1.39-.27-2.43.35-3.12,1.86-.7,1.51-1.04,4.08-1.04,7.74v33.33c0,12.08,1.68,24.23,5.02,35.77,4.28,14.78,8.84,29.72,13.22,44.52,3.67,12.41,7.43,24.89,10.38,37.54,2.91,14.92,4.45,29.42,4.85,44.61v44.59Z"/><path class="cls-1" d="m346.61,507.15c-9.26,2.2-13.89,3.27-23.15,5.32v-216.44c0-8.44-1.33-12.8-4-13.19-1.33-.19-2.33.63-3,2.5-.67,1.86-1,4.94-1,9.21v219.67c-9.26,1.99-13.89,2.95-23.15,4.76V176.6c9.26,2.42,13.89,3.68,23.15,6.28v67.1c1.44-3.19,3.36-5.3,5.75-6.35,2.38-1.05,5.25-1.2,8.58-.48,4.88,1.06,8.88,5.5,12.07,13.03,3.33,7.85,4.99,18.03,4.75,26.55v224.42Z"/><path class="cls-1" d="m406.56,359.04c-9.26-.15-13.89-.23-23.15-.39v-54.21c0-7.57-1.33-11.54-4-11.96-1.33-.21-2.33.51-3,2.16-.67,1.66-1,4.4-1,8.23v197.19c-9.26,2.35-13.89,3.51-23.15,5.74v-255.9c9.26,2.07,13.89,3.12,23.15,5.27v7.98c1.33-2.53,3.25-4.41,5.75-5.63,2.5-1.22,5.36-1.43,8.58-.66,4.88,1.17,8.91,5.33,12.08,12.38,3.16,7.05,4.75,15.1,4.75,24.36v65.44Z"/><path class="cls-1" d="m434.54,257.71c-9.26-2.5-13.89-3.74-23.15-6.2v-38.24c9.26,3.11,13.89,4.68,23.15,7.83v36.6Zm0,226.65c-9.26,2.53-13.89,3.79-23.15,6.27v-226.99c9.26,2.23,13.89,3.35,23.15,5.61v215.1Z"/><path class="cls-1" d="m493.33,468.18c-9.26,2.54-13.89,3.82-23.15,6.38v-158c0-6.07-1.33-9.32-4-9.77-1.33-.22-2.33.35-3,1.72-.67,1.37-1,3.68-1,6.89v161.36c-9.26,2.56-13.89,3.84-23.15,6.38v-212.77c9.26,2.26,13.89,3.4,23.15,5.67v6.68c1.33-2.04,3.25-3.51,5.75-4.4,2.49-.89,5.36-.91,8.58-.11,4.88,1.22,8.91,4.85,12.07,10.72,3.16,5.87,4.75,12.41,4.75,19.8v159.46Z"/><path class="cls-1" d="m562.78,449.78c-9.06,2.27-18.11,4.61-27.15,6.99-4.88-19.24-9.67-38.51-14.32-57.81v61.61c-9.26,2.48-13.89,3.74-23.15,6.27v-224.25c9.26,3.16,13.89,4.74,23.15,7.85v94.58c3.89-17.26,7.89-34.49,11.99-51.7,9.53,2.27,14.29,3.39,23.82,5.59-5.75,22-11.32,44.03-16.65,66.13,7.14,28.32,14.71,56.53,22.32,84.73Z"/><path class="cls-1" d="m595.25,274.09c3.33.99,5,4.11,5,9.19v149.81c0,4.82-1.67,8.07-5,8.84-7.33,1.7-10.99,2.57-18.32,4.35-3.16.77-5-1.8-5-6.92v-164.26c0-5.4,1.83-7.57,5-6.59,7.33,2.28,10.99,3.39,18.32,5.58Z"/><path class="cls-1" d="m641.88,331.14c0-3.98-1.67-6.31-5-6.87-9.33-1.58-13.99-2.4-23.32-4.08-3.16-.57-5-3.39-5-7.77v-26.83c0-4.99,1.83-7.05,5-6.15,28.21,7.9,56.55,14.93,85.27,20.73,3.33.65,5,3.28,5,7.54v21.56c0,3.32-1.67,4.91-5,4.46-9.33-1.25-13.99-1.91-23.31-3.3-3.16-.47-5,1.12-5,4.72v84.88c0,4.21-1.67,7.08-5,7.64-7.46,1.27-11.19,1.94-18.65,3.35-3.16.6-5-1.74-5-6.16v-93.71Z"/></g><g><path class="cls-2" d="m668.49,293.74s30.63,11.34,48.57,49.67c16.45,35.15,53.8,104.33,53.8,104.33l-27.98-8.69-37.2-13.23s-30.49-16.25-41.79-2.34c-11.3,13.91-4.34,24.29,2.1,28.8,6.44,4.51,87.2,60.89,87.2,60.89,0,0,27.1,20.65,44.73,37.14s53.54,20.12,61.04,19.79c55.1-2.4,102.9-16.09,102.9-16.09,0,0-10.2-21.44,2.77-42.3,12.97-20.85-65.61-183.94-65.61-183.94,0,0-10.3-38.79-35.08-19.08,0,0-33.65-22.37-43.85,5.41,0,0-27.17-16.1-39.12,11.94l-6.59,9.5-27.09-32.37s-57.7-51.17-81.77-37.53c-24.07,13.64,2.97,28.09,2.97,28.09Z"/><path d="m968.9,483.38c-1.56-10.36-19.56-50.98-41.14-99.05-7.96-17.69-14.8-32.98-16.65-37.91-2.21-5.92-4.65-11.74-7.26-17.24-3.27-6.96-7.23-14.97-11.72-21.44-.81-1.17-1.69-2.21-2.66-3.13-2.47-2.38-5.44-3.88-8.86-4.48-5.37-.94-11.76.6-17.99,4.08-.84-.31-1.81-.29-2.73.1-.04.03-.07.07-.12.09-18.2-14.68-32.94-3.78-37.16.11-.72.64-2.7,2.55-4.28,4.75-8.49-6.83-20.2-4.99-28.38-.84-7.69,3.91-10.13,9.21-12.71,14.85-1.04,2.26-2.15,4.59-3.63,6.96-.32-.29-.73-.49-1.15-.62-4.54-5.69-8.99-11.55-13.3-17.25-2.77-3.68-5.55-7.36-8.36-10.99l-44.58-32.77c-7.46-3.83-13.73-6.41-19.71-8.14-12.69-3.63-21.91-2.69-28.2,2.91-1.79,1.59-3.39,3.49-4.63,5.56-2.87,4.81-3.78,10.57-.53,15.75,1.96,3.09,4.77,5.31,7.26,7.3,11.08,8.75,31.46,13.57,45.32,39.02,18.54,34.05,33.59,62.95,31.71,59.13,2.09,4.21,7.19,13.9,12.55,24.02l13.28,25.74c-.05,0-.1-.03-.15-.04-32.75-7.39-33.67-6.36-59.99-21.21-6.98-3.95-20.55-9.71-32.9-4.16-8.8,4.01-14.45,10.82-15.44,18.76-1.01,7.88,2.67,15.79,10.08,21.73,2.78,2.21,5.74,4.15,8.63,6.02,3.01,1.94,5.82,3.78,8.45,5.92,20.61,16.79,72.36,50.2,85.6,60.13,5.9,4.42,11.39,9.61,16.72,14.69,3.84,3.63,7.8,7.38,11.94,10.89,15.32,12.93,40.68,25.53,61.79,18.51,1.63-.54,2.53-2.31,1.99-3.94-.55-1.64-2.32-2.53-3.96-2.01-17.46,5.82-40.59-4.53-55.78-17.35-4-3.37-7.9-7.07-11.67-10.64-5.43-5.18-11.09-10.53-17.26-15.16-14.33-10.73-62.32-41.17-85.39-59.96-2.89-2.36-5.99-4.38-8.99-6.32-2.9-1.86-5.61-3.63-8.14-5.67-5.66-4.53-8.49-10.37-7.77-16.06.72-5.71,5.03-10.74,11.82-13.81,9.84-4.43,21.28.54,27.24,3.9,25.35,14.3,31.54,15.06,61.68,21.85,2.45.57,4.74,1.32,6.81,2.28,1.21.56,2.64.31,3.57-.65.94-.94,1.16-2.37.56-3.57-2.38-4.81-8.71-16.79-14.82-28.38-.83-1.57-1.66-3.16-2.49-4.72l-10.68-20.71c-.14-.24-.33-.45-.5-.66-.44-.84-.81-1.58-1.13-2.2-5.1-10.29-18.07-34.12-31.82-59.36-13.83-25.41-35.93-32.26-46.93-40.94-2.2-1.75-4.48-3.54-5.87-5.74-2.69-4.25.2-9.88,4.03-13.27,4.56-4.07,11.86-4.58,22.33-1.57,5.57,1.61,11.48,4.04,18.56,7.68l42.48,31.03c2.8,3.62,5.58,7.27,8.32,10.95,5.59,7.37,11.37,15.01,17.36,22.29.16.19.42.27.61.43l23.44,33.7c1,1.4,2.92,1.77,4.35.77,1.41-.98,1.77-2.93.77-4.34l-23.1-33.2c.2-.4.4-.79.62-1.13,2.09-3.12,3.48-6.13,4.7-8.79,2.4-5.19,4.1-8.95,9.86-11.88,7.21-3.67,17.82-5.18,23.98,2.53l24.39,39.35c.92,1.46,2.83,1.91,4.31,1.01,1.48-.91,1.91-2.84,1-4.31l-23.8-38.43c1.28-2.3,6.15-8.42,13.63-10.42,7.2-1.92,14.62.66,22.09,7.67.39.36.84.56,1.34.71l10.99,23.22c.76,1.59,2.56,2.35,4.2,1.85.15-.05.31-.12.46-.18,1.75-.83,2.5-2.93,1.66-4.67l-10.87-22.97c4.79-2.57,9.57-3.73,13.37-3.07,3.06.56,5.52,2.19,7.47,5.01,4.22,6.1,8.05,13.8,11.22,20.54,2.52,5.36,4.89,11.01,7.04,16.77,1.92,5.14,8.48,19.76,16.8,38.29,15.55,34.67,39.09,87.06,40.66,97.42,1.99,13.01-.84,20.59-3.83,28.62-3.77,10.14-7.71,20.66-.76,40.99.55,1.63,2.32,2.51,3.95,1.96,1.65-.57,2.52-2.33,1.95-3.96-6.2-18.22-2.99-26.84.7-36.8,2.97-8.01,6.35-17.11,4.11-31.73h0Z"/></g><g><path d="m718.44,587.93c1.03,0,1.63.6,1.63,1.63v13.57c0,1.03.6,1.63,1.63,1.63h5.21c1.09,0,1.63-.6,1.63-1.63v-13.57c0-1.03.6-1.63,1.63-1.63h6.08c1.08,0,1.63.54,1.63,1.63v34.74c0,1.03-.54,1.63-1.63,1.63h-6.08c-1.03,0-1.63-.6-1.63-1.63v-8.58c0-1.08-.54-1.63-1.63-1.63h-5.21c-1.03,0-1.63.54-1.63,1.63v8.58c0,1.03-.54,1.63-1.63,1.63h-6.08c-1.03,0-1.63-.6-1.63-1.63v-34.74c0-1.09.54-1.63,1.63-1.63h6.08Z"/><path d="m766.91,624.08c0,1.19-.54,1.85-1.63,1.85h-6.08c-1.03,0-1.63-.54-1.63-1.63v-4.72c0-1.08-.54-1.63-1.63-1.63h-4.67c-1.03,0-1.63.54-1.63,1.63v4.72c0,1.08-.54,1.63-1.63,1.63h-6.08c-1.03,0-1.63-.65-1.63-1.85v-23.01c0-6.84,1.09-14.11,13.3-14.11s13.3,7.27,13.3,14.11v23.01Zm-9.33-23.01c0-2.61-.38-3.91-3.96-3.91s-3.96,1.3-3.96,3.91v5.92c0,1.03.6,1.63,1.63,1.63h4.67c1.08-.05,1.63-.6,1.63-1.68v-5.86Z"/><path d="m768.81,600.15c0-3.58.76-13.19,13.62-13.19,11.56,0,13.35,7.76,13.57,11.94.05.76-.43,1.36-1.19,1.52l-6.02,1.36c-1.14.22-2.01-.54-2.17-1.68-.27-2.39-1.25-3.8-4.18-3.8-4.02,0-4.29,2.55-4.29,6.73v7.82c0,4.18.27,6.73,4.29,6.73,2.99,0,3.8-1.41,4.12-3.91.16-1.14,1.03-1.84,2.12-1.57l6.13,1.36c.76.16,1.25.76,1.19,1.57-.22,4.12-2.01,11.89-13.57,11.89-12.86,0-13.62-9.61-13.62-13.19v-13.57Z"/><path d="m827.54,623.97c.76,1.09.27,1.95-1.03,1.95h-8.14c-.87,0-1.47-.33-1.95-1.09l-6.73-10.31c-.22-.33-.54-.33-.76,0l-2.23,3.04c-.16.22-.22.43-.22.71v6.03c0,1.03-.54,1.63-1.63,1.63h-6.19c-1.03,0-1.63-.6-1.63-1.63v-34.74c0-1.09.6-1.63,1.63-1.63h6.19c1.09,0,1.63.54,1.63,1.63v10.91c0,.54.38.65.65.22l8.52-11.72c.49-.71,1.09-1.03,1.95-1.03h8.03c1.36,0,1.79.87,1.03,2.01l-10.96,15.09c-.16.27-.22.49,0,.76l11.83,18.18Z"/><path d="m854.47,624.08c0,1.19-.54,1.85-1.63,1.85h-6.08c-1.03,0-1.63-.54-1.63-1.63v-4.72c0-1.08-.54-1.63-1.63-1.63h-4.67c-1.03,0-1.63.54-1.63,1.63v4.72c0,1.08-.54,1.63-1.63,1.63h-6.08c-1.03,0-1.63-.65-1.63-1.85v-23.01c0-6.84,1.09-14.11,13.3-14.11s13.3,7.27,13.3,14.11v23.01Zm-9.33-23.01c0-2.61-.38-3.91-3.96-3.91s-3.96,1.3-3.96,3.91v5.92c0,1.03.6,1.63,1.63,1.63h4.67c1.08-.05,1.63-.6,1.63-1.68v-5.86Z"/><path d="m864.51,598.9c0-1.08-.54-1.63-1.63-1.63h-7.6c-1.03,0-1.63-.6-1.63-1.63v-6.08c0-1.09.6-1.63,1.63-1.63h27.79c1.09,0,1.63.54,1.63,1.63v6.08c0,1.03-.54,1.63-1.63,1.63h-7.6c-1.03,0-1.63.54-1.63,1.63v25.4c0,1.03-.54,1.63-1.63,1.63h-6.08c-1.03,0-1.63-.6-1.63-1.63v-25.4Z"/><path d="m892.95,587.93c1.03,0,1.63.6,1.63,1.63v13.57c0,1.03.6,1.63,1.63,1.63h5.21c1.09,0,1.63-.6,1.63-1.63v-13.57c0-1.03.6-1.63,1.63-1.63h6.08c1.08,0,1.63.54,1.63,1.63v34.74c0,1.03-.54,1.63-1.63,1.63h-6.08c-1.03,0-1.63-.6-1.63-1.63v-8.58c0-1.08-.54-1.63-1.63-1.63h-5.21c-1.03,0-1.63.54-1.63,1.63v8.58c0,1.03-.54,1.63-1.63,1.63h-6.08c-1.03,0-1.63-.6-1.63-1.63v-34.74c0-1.09.54-1.63,1.63-1.63h6.08Z"/><path d="m941.8,613.72c0,3.58-.76,13.19-13.62,13.19s-13.62-9.61-13.62-13.19v-13.57c0-3.58.76-13.19,13.62-13.19s13.62,9.61,13.62,13.19v13.57Zm-9.33-10.69c0-4.18-.27-6.73-4.29-6.73s-4.29,2.55-4.29,6.73v7.82c0,4.18.27,6.73,4.29,6.73s4.29-2.55,4.29-6.73v-7.82Z"/><path d="m953.58,587.93c.92,0,1.52.38,1.9,1.25l7.38,18.07c.22.49.65.38.65-.16v-17.53c0-1.09.6-1.63,1.63-1.63h6.08c1.09,0,1.63.54,1.63,1.63v34.74c0,1.03-.54,1.63-1.63,1.63h-7.98c-.92,0-1.52-.38-1.9-1.25l-7.38-18.07c-.22-.49-.65-.38-.65.16v17.53c0,1.03-.54,1.63-1.63,1.63h-6.08c-1.03,0-1.63-.6-1.63-1.63v-34.74c0-1.09.6-1.63,1.63-1.63h7.98Z"/></g><g><path d="m737.06,669.18c0,1.19-.54,1.85-1.63,1.85h-6.08c-1.03,0-1.63-.54-1.63-1.63v-4.72c0-1.08-.54-1.63-1.63-1.63h-4.67c-1.03,0-1.63.54-1.63,1.63v4.72c0,1.08-.54,1.63-1.63,1.63h-6.08c-1.03,0-1.63-.65-1.63-1.85v-23.01c0-6.84,1.09-14.11,13.3-14.11s13.3,7.27,13.3,14.11v23.01Zm-9.33-23.01c0-2.61-.38-3.91-3.96-3.91s-3.96,1.3-3.96,3.91v5.92c0,1.03.6,1.63,1.63,1.63h4.67c1.08-.05,1.63-.6,1.63-1.68v-5.86Z"/><path d="m754.43,633.03c9.66,0,13.57,4.12,13.57,13.03s-3.91,13.03-13.57,13.03h-2.6c-1.03,0-1.63.54-1.63,1.63v8.68c0,1.08-.54,1.63-1.63,1.63h-6.08c-1.03,0-1.63-.6-1.63-1.63v-34.68c0-1.08.54-1.63,1.63-1.68h11.94Zm.33,16.72c2.61,0,3.91-.33,3.91-3.69s-1.3-3.69-3.91-3.69h-2.93c-1.03,0-1.63.54-1.63,1.63v4.12c0,1.03.6,1.63,1.63,1.63h2.93Z"/><path d="m798.61,668.09c.76,1.41-.11,2.93-1.79,2.93h-6.19c-.54,0-1.03-.27-1.25-.76l-5.64-10.91c-.11-.16-.27-.27-.43-.27h-2.17c-.98,0-1.68.71-1.68,1.68v8.58c0,.98-.71,1.68-1.68,1.68h-6.08c-.98,0-1.68-.71-1.68-1.68v-34.63c0-.98.71-1.68,1.68-1.68h11.89c9.66,0,13.57,4.12,13.57,13.03,0,5.05-1.25,8.58-4.12,10.64-.22.16-.27.43-.16.71l5.75,10.69Zm-17.48-25.73c-.98,0-1.68.71-1.68,1.68v4.02c0,.98.71,1.68,1.68,1.68h2.77c2.61,0,3.91-.33,3.91-3.69s-1.3-3.69-3.91-3.69h-2.77Z"/><path d="m808.44,633.03c1.08,0,1.63.54,1.63,1.63v34.74c0,1.03-.54,1.63-1.63,1.63h-5.97c-1.03,0-1.63-.6-1.63-1.63v-34.74c0-1.09.6-1.63,1.63-1.63h5.97Z"/><path d="m821.85,633.03c1.09,0,1.63.54,1.63,1.63v25.4c0,1.03.6,1.63,1.63,1.63h12.1c1.08,0,1.63.54,1.63,1.63v6.08c0,1.08-.54,1.63-1.63,1.63h-21.44c-1.03,0-1.63-.6-1.63-1.63v-34.74c0-1.09.6-1.63,1.63-1.63h6.08Z"/><path d="m879.65,661.69c1.09,0,1.63.54,1.63,1.63v6.08c0,1.08-.54,1.63-1.63,1.63h-23.12c-1.03,0-1.63-.6-1.63-1.63v-4.67c0-12.48,15.96-16.01,16.83-20.3.33-1.63-.54-3.04-2.66-3.04-2.55,0-3.8,1.41-4.18,3.64-.16,1.09-.71,1.57-1.79,1.36l-6.19-1.36c-.98-.22-1.47-.81-1.41-1.79.33-3.91,2.39-11.18,13.57-11.18,12.16,0,12.59,9.61,12.54,11.24,0,10.64-14.22,12.32-16.12,17.8-.11.38.05.6.49.6h13.68Z"/><path d="m898.92,672c-12.86,0-13.62-12.86-13.62-19.97s.43-19.97,13.62-19.97,13.62,12.86,13.62,19.97-.76,19.97-13.62,19.97Zm-4.29-19.97c0,5.48.05,10.64,4.29,10.64s4.29-5.16,4.29-10.64-.05-10.64-4.29-10.64c-4.02,0-4.29,5.16-4.29,10.64Z"/><path d="m940.44,661.69c1.09,0,1.63.54,1.63,1.63v6.08c0,1.08-.54,1.63-1.63,1.63h-23.12c-1.03,0-1.63-.6-1.63-1.63v-4.67c0-12.48,15.96-16.01,16.83-20.3.33-1.63-.54-3.04-2.66-3.04-2.55,0-3.8,1.41-4.18,3.64-.16,1.09-.71,1.57-1.79,1.36l-6.19-1.36c-.98-.22-1.47-.81-1.41-1.79.33-3.91,2.39-11.18,13.57-11.18,12.16,0,12.59,9.61,12.54,11.24,0,10.64-14.22,12.32-16.12,17.8-.11.38.05.6.49.6h13.68Z"/><path d="m947.83,645.03c-.98-.22-1.47-.81-1.41-1.79.33-3.91,2.39-11.18,13.57-11.18,8.74,0,12.92,5.59,12.65,11.89-.22,4.29-2.23,6.84-3.85,7.82-.38.16-.38.38,0,.54,1.63.98,3.64,3.53,3.85,7.82.27,6.3-3.91,11.89-12.65,11.89-11.18,0-13.24-7.27-13.57-11.18-.05-.98.43-1.57,1.41-1.79l6.19-1.36c1.08-.22,1.63.27,1.79,1.36.38,2.23,1.63,3.64,4.18,3.64,2.17,0,3.85-2.12,2.71-4.34-.81-1.52-2.71-2.5-5.32-2.82-1.09-.11-1.63-.6-1.63-1.63v-3.69c0-1.03.54-1.52,1.63-1.63,2.6-.33,4.5-1.3,5.32-2.82,1.19-2.23-.54-4.34-2.71-4.34-2.55,0-3.8,1.41-4.18,3.64-.16,1.09-.71,1.57-1.79,1.36l-6.19-1.36Z"/></g><path class="cls-3" d="m230.01,109.84l27.42-43.24c.52-.81,1.41-1.3,2.37-1.3h2.61c.96,0,1.85.49,2.37,1.3h0l27.42,43.24h-9.26l-21.84-34.43-9.02,14.23h17.18l-4.64,7.32h-17.18l-8.17,12.88h-9.26Zm217.85,0h-8.49v-37.06h-20.04l4.75-7.49,40.96-.02v7.51h-17.18v37.06Zm-86.11-44.54h-8.49v44.54h8.49v-44.54Zm92.21,44.54l27.42-43.24c.51-.81,1.41-1.3,2.37-1.3h2.61c.96,0,1.85.49,2.37,1.3h0l27.42,43.24h-9.26l-21.83-34.43-9.03,14.23h17.18l-4.65,7.32h-17.18l-8.16,12.88h-9.26Zm-119.55,0l-26.57-25.43h23.89c3.02,0,5.47-2.45,5.47-5.46v-.71c0-3.01-2.45-5.46-5.47-5.46h-28.2v37.06h-8.49v-44.54h36.52c7.33,0,13.28,5.94,13.28,13.27s-5.95,13.27-13.28,13.27h-4.97l18.82,18.01h-10.99Zm36.07,0h35.12c7.1,0,12.87-5.75,12.87-12.85v-.54c0-7.1-5.76-12.85-12.87-12.85h-23.27c-2.98,0-5.4-2.42-5.4-5.39v-.02c0-2.98,2.42-5.39,5.4-5.39h28.91l4.75-7.49h-33.6c-7.1,0-12.87,5.76-12.87,12.85h0c0,7.1,5.77,12.86,12.87,12.86h23.27c2.98,0,5.4,2.42,5.4,5.39v.53c0,2.97-2.42,5.39-5.4,5.39h-30.41l-4.77,7.52Z"/></svg>